<svg width="22" height="23" viewBox="0 0 22 23" version="1.1" xmlns="http://www.w3.org/2000/svg" xmlns:xlink="http://www.w3.org/1999/xlink">
<title>icon_search</title>
<desc>Created using Figma</desc>
<g id="Canvas" transform="translate(1131 580)">
<g id="icon_search">
<g id="Group">
<g id="Vector">
<use xlink:href="#path0_fill" transform="translate(-1131 -580)" fill="#BDBDBD"/>
</g>
</g>
</g>
</g>
<defs>
<path id="path0_fill" d="M 21.8097 20.8827L 16.4622 15.5352C 17.8967 13.886 18.7651 11.7343 18.7651 9.38257C 18.7651 4.20581 14.5544 0 9.38257 0C 4.20581 0 3.63524e-11 4.21069 3.63524e-11 9.38257C 3.63524e-11 14.5544 4.21069 18.7651 9.38257 18.7651C 11.7343 18.7651 13.886 17.8967 15.5352 16.4622L 20.8827 21.8097C 21.0095 21.9366 21.1803 22.0049 21.3462 22.0049C 21.5121 22.0049 21.6829 21.9415 21.8097 21.8097C 22.0634 21.556 22.0634 21.1364 21.8097 20.8827ZM 1.31249 9.38257C 1.31249 4.9328 4.9328 1.31737 9.37769 1.31737C 13.8275 1.31737 17.4429 4.93768 17.4429 9.38257C 17.4429 13.8275 13.8275 17.4527 9.37769 17.4527C 4.9328 17.4527 1.31249 13.8323 1.31249 9.38257Z"/>
</defs>
</svg>
