<?xml version="1.0" encoding="UTF-8"?>
<svg width="28px" height="28px" viewBox="0 0 28 28" version="1.1" xmlns="http://www.w3.org/2000/svg" xmlns:xlink="http://www.w3.org/1999/xlink">
    <!-- Generator: Sketch 45 (43475) - http://www.bohemiancoding.com/sketch -->
    <title>phone-call</title>
    <desc>Created with Sketch.</desc>
    <defs></defs>
    <g id="Page-1" stroke="none" stroke-width="1" fill="none" fill-rule="evenodd">
        <g id="vodakl-mainpage-color" transform="translate(-185.000000, -136.000000)" fill-rule="nonzero" fill="#1897D4">
            <g id="navbar-2" transform="translate(0.000000, 110.000000)">
                <g id="1" transform="translate(165.000000, 10.000000)">
                    <g id="Group-2" transform="translate(20.000000, 16.000000)">
                        <g id="phone-call">
                            <path d="M22.1197637,17.3379072 C21.5467679,16.7412827 20.8556287,16.4222954 20.1231392,16.4222954 C19.396557,16.4222954 18.6995105,16.7353755 18.1028861,17.332 L16.2362194,19.1927595 C16.0826329,19.1100591 15.9290464,19.0332658 15.7813671,18.9564726 C15.5687089,18.8501435 15.367865,18.7497215 15.196557,18.6433924 C13.4480338,17.5328439 11.8590042,16.0855865 10.3349536,14.2130127 C9.59655696,13.2796793 9.10035443,12.4940253 8.74001688,11.696557 C9.22440506,11.253519 9.67335021,10.7927595 10.110481,10.3497215 C10.2758819,10.1843207 10.4412827,10.0130127 10.6066835,9.84761181 C11.8471899,8.60710549 11.8471899,7.00035443 10.6066835,5.7598481 L8.99402532,4.14718987 C8.81090295,3.96406751 8.62187342,3.77503797 8.44465823,3.58600844 C8.09022785,3.21976371 7.71807595,2.84170464 7.3341097,2.48727426 C6.76111392,1.92018565 6.07588186,1.61891983 5.35520675,1.61891983 C4.63453165,1.61891983 3.93748523,1.92018565 3.34676793,2.48727426 C3.34086076,2.49318143 3.34086076,2.49318143 3.33495359,2.49908861 L1.32651477,4.52524895 C0.570396624,5.28136709 0.139172996,6.20288608 0.0446582278,7.27208439 C-0.0971139241,8.9969789 0.410902954,10.60373 0.800776371,11.6552068 C1.7577384,14.2366414 3.18727426,16.6290464 5.31976371,19.1927595 C7.90710549,22.282211 11.0201857,24.7218734 14.5763038,26.4408608 C15.9349536,27.0847426 17.7484557,27.8467679 19.774616,27.9767257 C19.8986667,27.9826329 20.0286245,27.9885401 20.1467679,27.9885401 C21.5113249,27.9885401 22.6573165,27.4982447 23.5552068,26.5235612 C23.5611139,26.5117468 23.5729283,26.5058397 23.5788354,26.4940253 C23.8860084,26.1218734 24.2404388,25.7851646 24.6125907,25.424827 C24.8665992,25.1826329 25.1265148,24.9286245 25.3805232,24.6628017 C25.9653333,24.0543629 26.2725063,23.3455021 26.2725063,22.6189198 C26.2725063,21.8864304 25.9594262,21.1834768 25.3628017,20.5927595 L22.1197637,17.3379072 Z M24.2345316,23.5581603 C24.2286245,23.5581603 24.2286245,23.5640675 24.2345316,23.5581603 C24.0041519,23.8062616 23.767865,24.0307342 23.5138565,24.2788354 C23.1298903,24.6450802 22.7400169,25.0290464 22.3737722,25.46027 C21.7771477,26.0982447 21.0741941,26.3995105 20.1526751,26.3995105 C20.0640675,26.3995105 19.9695527,26.3995105 19.8809451,26.3936034 C18.1265148,26.2813671 16.496135,25.596135 15.2733502,25.0113249 C11.9298903,23.3927595 8.99402532,21.0948692 6.55436287,18.1826329 C4.54001688,15.7547848 3.19318143,13.5100591 2.30119831,11.0999325 C1.75183122,9.62904641 1.55098734,8.48305485 1.63959494,7.40204219 C1.69866667,6.71090295 1.96448945,6.13790717 2.45478481,5.64761181 L4.4691308,3.63326582 C4.75858228,3.36153586 5.06575527,3.21385654 5.3670211,3.21385654 C5.739173,3.21385654 6.04043882,3.43832911 6.22946835,3.62735865 C6.23537553,3.63326582 6.2412827,3.639173 6.24718987,3.64508017 C6.60752743,3.98178903 6.95014346,4.33031224 7.31048101,4.70246414 C7.49360338,4.89149367 7.68263291,5.08052321 7.87166245,5.27545992 L9.48432068,6.88811814 C10.110481,7.51427848 10.110481,8.09318143 9.48432068,8.71934177 C9.31301266,8.89064979 9.14761181,9.06195781 8.9763038,9.22735865 C8.48010127,9.73537553 8.00752743,10.2079494 7.49360338,10.6687089 C7.48178903,10.6805232 7.46997468,10.6864304 7.46406751,10.6982447 C6.95605063,11.2062616 7.0505654,11.7024641 7.15689451,12.039173 C7.16280169,12.0568945 7.16870886,12.074616 7.17461603,12.0923376 C7.59402532,13.1083713 8.18474262,14.0653333 9.08263291,15.2054177 L9.08854008,15.2113249 C10.7189198,17.2197637 12.4379072,18.7851646 14.3341097,19.9843207 C14.5763038,20.1379072 14.8244051,20.2619578 15.060692,20.3801013 C15.2733502,20.4864304 15.4741941,20.5868523 15.6455021,20.6931814 C15.6691308,20.7049958 15.6927595,20.7227173 15.7163882,20.7345316 C15.9172321,20.8349536 16.1062616,20.882211 16.3011983,20.882211 C16.7914937,20.882211 17.0986667,20.575038 17.1990886,20.474616 L19.2193418,18.4543629 C19.4201857,18.253519 19.739173,18.0113249 20.1113249,18.0113249 C20.4775696,18.0113249 20.7788354,18.2417046 20.9619578,18.4425485 C20.967865,18.4484557 20.967865,18.4484557 20.9737722,18.4543629 L24.2286245,21.7092152 C24.8370633,22.3117468 24.8370633,22.932 24.2345316,23.5581603 Z" id="Shape"></path>
                            <path d="M15.1256709,6.6577384 C16.6733502,6.91765401 18.0792574,7.65014346 19.2016203,8.77250633 C20.3239831,9.8948692 21.0505654,11.3007764 21.3163882,12.8484557 C21.3813671,13.2383291 21.7180759,13.5100591 22.1020422,13.5100591 C22.1492996,13.5100591 22.1906498,13.5041519 22.2379072,13.4982447 C22.675038,13.4273586 22.9644895,13.0138565 22.8936034,12.5767257 C22.574616,10.7041519 21.6885401,8.9969789 20.3357975,7.64423629 C18.9830549,6.29149367 17.2758819,5.40541772 15.403308,5.08643038 C14.9661772,5.0155443 14.5585823,5.30499578 14.481789,5.73621941 C14.4049958,6.16744304 14.6885401,6.58685232 15.1256709,6.6577384 Z" id="Shape"></path>
                            <path d="M27.9560506,12.346346 C27.4303122,9.26280169 25.9771477,6.45689451 23.7442363,4.22398312 C21.5113249,1.99107173 18.7054177,0.537907173 15.6218734,0.0121687764 C15.1906498,-0.0646244726 14.7830549,0.230734177 14.7062616,0.661957806 C14.6353755,1.09908861 14.924827,1.50668354 15.3619578,1.58347679 C18.1147004,2.05014346 20.6252489,3.35562869 22.6218734,5.34634599 C24.6184979,7.34297046 25.9180759,9.85351899 26.3847426,12.6062616 C26.4497215,12.996135 26.7864304,13.267865 27.1703966,13.267865 C27.217654,13.267865 27.2590042,13.2619578 27.3062616,13.2560506 C27.7374852,13.1910717 28.0328439,12.7775696 27.9560506,12.346346 Z" id="Shape"></path>
                        </g>
                    </g>
                </g>
            </g>
        </g>
    </g>
</svg>