<?xml version="1.0" encoding="UTF-8"?>
<svg width="28px" height="32px" viewBox="0 0 28 32" version="1.1" xmlns="http://www.w3.org/2000/svg" xmlns:xlink="http://www.w3.org/1999/xlink">
    <!-- Generator: Sketch 45 (43475) - http://www.bohemiancoding.com/sketch -->
    <title>avatar</title>
    <desc>Created with Sketch.</desc>
    <defs></defs>
    <g id="Page-1" stroke="none" stroke-width="1" fill="none" fill-rule="evenodd">
        <g id="vodakl-mainpage-color" transform="translate(-774.000000, -134.000000)" fill-rule="nonzero" fill="#1897D4">
            <g id="navbar-2" transform="translate(0.000000, 110.000000)">
                <g id="3" transform="translate(750.000000, 10.000000)">
                    <g id="Group-2" transform="translate(24.000000, 14.000000)">
                        <g id="avatar">
                            <path d="M13.8773723,17.2389234 L13.9863747,17.2389234 L14.0272506,17.2389234 L14.0953771,17.2389234 C16.0914842,17.2057971 17.7060827,16.5233954 18.8982968,15.2182195 C21.5211679,12.3428571 21.0851582,7.4136646 21.0374696,6.94327122 C20.8671533,3.41200828 19.150365,1.72256729 17.7333333,0.934161491 C16.6773723,0.344513458 15.4442822,0.0265010352 14.0681265,0 L14.020438,0 L13.9931873,0 L13.9523114,0 C13.1961071,0 11.7109489,0.119254658 10.2871046,0.907660455 C8.85644769,1.69606625 7.11240876,3.38550725 6.94209246,6.94327122 C6.89440389,7.4136646 6.45839416,12.3428571 9.08126521,15.2182195 C10.2666667,16.5233954 11.8812652,17.2057971 13.8773723,17.2389234 Z M8.76107056,7.10890269 C8.76107056,7.08902692 8.76788321,7.06915114 8.76788321,7.05590062 C8.99270073,2.30559006 12.4603406,1.79544513 13.9454988,1.79544513 L13.9727494,1.79544513 L14.0272506,1.79544513 C15.8666667,1.83519669 18.993674,2.56397516 19.2048662,7.05590062 C19.2048662,7.0757764 19.2048662,7.09565217 19.2116788,7.10890269 C19.2184915,7.1552795 19.6953771,11.6604555 17.5289538,14.0322981 C16.6705596,14.9730849 15.5260341,15.436853 14.020438,15.4501035 L13.9863747,15.4501035 L13.9863747,15.4501035 L13.9523114,15.4501035 C12.453528,15.436853 11.3021898,14.9730849 10.4506083,14.0322981 C8.29099757,11.673706 8.75425791,7.14865424 8.76107056,7.10890269 Z" id="Shape"></path>
                            <path d="M27.9863747,25.4144928 L27.9863747,25.394617 C27.9863747,25.3416149 27.979562,25.2886128 27.979562,25.2289855 C27.9386861,23.9171843 27.8501217,20.8496894 24.8934307,19.8691511 C24.8729927,19.8625259 24.8457421,19.8559006 24.8253041,19.8492754 C21.7527981,19.0873706 19.1980535,17.3648033 19.1708029,17.3449275 C18.7552311,17.0600414 18.1829684,17.1594203 17.8900243,17.5635611 C17.5970803,17.9677019 17.6992701,18.5242236 18.1148418,18.8091097 C18.2306569,18.8886128 20.9420925,20.7238095 24.3347932,21.5718427 C25.9221411,22.1217391 26.0992701,23.7714286 26.1469586,25.2819876 C26.1469586,25.3416149 26.1469586,25.394617 26.1537713,25.447619 C26.1605839,26.0438923 26.119708,26.9648033 26.0107056,27.494824 C24.907056,28.1043478 20.5810219,30.2111801 14,30.2111801 C7.44622871,30.2111801 3.09294404,28.0977226 1.98248175,27.4881988 C1.87347932,26.9581781 1.82579075,26.0372671 1.83941606,25.4409938 C1.83941606,25.3879917 1.84622871,25.3349896 1.84622871,25.2753623 C1.89391727,23.7648033 2.07104623,22.1151139 3.65839416,21.5652174 C7.05109489,20.7171843 9.76253041,18.8753623 9.8783455,18.8024845 C10.2939173,18.5175983 10.3961071,17.9610766 10.103163,17.5569358 C9.81021898,17.152795 9.2379562,17.0534161 8.82238443,17.3383023 C8.79513382,17.3581781 6.2540146,19.0807453 3.16788321,19.8426501 C3.1406326,19.8492754 3.12019465,19.8559006 3.09975669,19.8625259 C0.143065693,20.8496894 0.0545012165,23.9171843 0.0136253041,25.2223602 C0.0136253041,25.2819876 0.0136253041,25.3349896 0.00681265207,25.3879917 L0.00681265207,25.4078675 C-5.23418114e-14,25.752381 -0.00681265207,27.5213251 0.354257908,28.4091097 C0.422384428,28.5813665 0.545012165,28.7271222 0.708515815,28.826501 C0.912895377,28.9590062 5.81119221,31.9933747 14.0068127,31.9933747 C22.2024331,31.9933747 27.1007299,28.952381 27.3051095,28.826501 C27.4618005,28.7271222 27.5912409,28.5813665 27.6593674,28.4091097 C28,27.5279503 27.9931873,25.7590062 27.9863747,25.4144928 Z" id="Shape"></path>
                        </g>
                    </g>
                </g>
            </g>
        </g>
    </g>
</svg>