<?xml version="1.0" encoding="UTF-8"?>
<svg width="40px" height="24px" viewBox="0 0 40 24" version="1.1" xmlns="http://www.w3.org/2000/svg" xmlns:xlink="http://www.w3.org/1999/xlink">
    <!-- Generator: Sketch 45 (43475) - http://www.bohemiancoding.com/sketch -->
    <title>vk</title>
    <desc>Created with Sketch.</desc>
    <defs></defs>
    <g id="Page-1" stroke="none" stroke-width="1" fill="none" fill-rule="evenodd">
        <g id="vodakl-mainpage-color" transform="translate(-1115.000000, -3653.000000)" fill="#FFFFFE">
            <g id="footer" transform="translate(0.000000, 3311.000000)">
                <g id="socials" transform="translate(1115.000000, 334.000000)">
                    <g id="vk" transform="translate(0.000000, 8.000000)">
                        <path d="M33.276318,11.4313723 C33.276318,11.4313723 38.4604161,4.11875201 38.9755584,1.71552582 C39.1471761,0.857292722 38.7695304,0.376416156 37.8767424,0.376416156 L33.3794043,0.376416156 C32.3494089,0.376416156 31.9717632,0.822737852 31.6627935,1.47508754 C31.6627935,1.47508754 29.2312295,6.6561494 26.2726675,9.92093405 C25.3229146,10.9763757 24.8400139,11.2940203 24.315763,11.2940203 C23.8928634,11.2940203 23.6978236,10.9415317 23.6978236,9.98946546 L23.6978236,1.64684983 C23.6978236,0.479647025 23.5604716,0.136267035 22.5992968,0.136267035 L15.3896182,0.136267035 C14.8402103,0.136267035 14.4968303,0.455646571 14.4968303,0.89141385 C14.4968303,1.99066356 16.1791753,2.23890922 16.1791753,5.21727881 L16.1791753,11.3626963 C16.1791753,12.5987196 16.1104993,13.079307 15.5268256,13.079307 C13.9819772,13.079307 10.3084619,7.75800157 8.24861569,1.71552582 C7.8365597,0.479647025 7.39023801,0.136267035 6.22289062,0.136267035 L1.72555254,0.136267035 C1.07320285,0.136267035 0.592470867,0.58244415 0.592470867,1.23464926 C0.592470867,2.43626235 2.00011195,7.99815069 7.52759,15.4482675 C11.235371,20.4606033 16.1104993,23.1727992 20.5048957,23.1727992 C23.1828259,23.1727992 23.8351756,22.7266221 23.8351756,21.5935404 L23.8351756,17.7484074 C23.8351756,16.787088 24.2128213,16.3751766 24.7620847,16.3751766 C25.3800241,16.3751766 26.4707435,16.5736864 29.0192736,19.0873725 C32.0404392,21.9713307 32.2464672,23.1727992 33.8945466,23.1727992 L38.9411481,23.1727992 C39.4561458,23.1727992 39.9367332,22.9325055 39.9367332,22.0742724 C39.9367332,20.9411907 38.4604161,18.9157548 36.1945419,16.512384 C35.2676328,15.2765052 33.75705,13.9376847 33.276318,13.3197453 C32.5898472,12.5987196 32.7957306,12.1865191 33.276318,11.4313723" id="Fill-4"></path>
                    </g>
                </g>
            </g>
        </g>
    </g>
</svg>