<?xml version="1.0" encoding="UTF-8"?>
<svg width="28px" height="28px" viewBox="0 0 28 28" version="1.1" xmlns="http://www.w3.org/2000/svg" xmlns:xlink="http://www.w3.org/1999/xlink">
    <!-- Generator: Sketch 45 (43475) - http://www.bohemiancoding.com/sketch -->
    <title>shopping-cart</title>
    <desc>Created with Sketch.</desc>
    <defs></defs>
    <g id="Page-1" stroke="none" stroke-width="1" fill="none" fill-rule="evenodd">
        <g id="vodakl-mainpage-color" transform="translate(-1078.000000, -136.000000)" fill-rule="nonzero" fill="#1897D4">
            <g id="navbar-2" transform="translate(0.000000, 110.000000)">
                <g id="4" transform="translate(1020.000000, 10.000000)">
                    <g id="Group-2" transform="translate(58.000000, 16.000000)">
                        <g id="shopping-cart">
                            <path d="M7.97777483,18.4195729 L24.5490773,18.4195729 C26.428106,18.4195729 27.9609978,16.9937002 27.9609978,15.2458563 L27.9609978,8.76043532 L27.9609978,8.73743737 L27.9609978,8.69144148 C27.9609978,8.67994251 27.9609978,8.66844353 27.9548168,8.65694456 C27.9548168,8.64544559 27.9486358,8.62819713 27.9486358,8.61669815 C27.9486358,8.60519918 27.9424547,8.59370021 27.9424547,8.58220123 C27.9362737,8.57070226 27.9362737,8.55920329 27.9300927,8.54195483 C27.9239117,8.53045585 27.9239117,8.51895688 27.9177307,8.50745791 C27.9115497,8.49595893 27.9115497,8.48445996 27.9053687,8.47296099 C27.8991876,8.46146201 27.8930066,8.44996304 27.8868256,8.43271458 C27.8806446,8.42121561 27.8744636,8.40971663 27.8682826,8.40396715 C27.8621015,8.39246817 27.8559205,8.3809692 27.8497395,8.36947023 C27.8435585,8.35797125 27.8373775,8.35222177 27.8311965,8.34072279 C27.8250155,8.32922382 27.8126534,8.31772485 27.8064724,8.30622587 C27.8002914,8.2947269 27.7941104,8.28897741 27.7817483,8.27747844 C27.7755673,8.26597947 27.7632053,8.26022998 27.7570243,8.24873101 C27.7508433,8.23723203 27.7384812,8.23148255 27.7323002,8.21998357 C27.7261192,8.2084846 27.7137572,8.20273511 27.7075762,8.19698563 C27.6952141,8.18548665 27.6890331,8.17973717 27.6766711,8.16823819 C27.6643091,8.16248871 27.658128,8.15098973 27.645766,8.14524025 C27.633404,8.13949076 27.6210419,8.12799179 27.6086799,8.1222423 C27.5963179,8.11649281 27.5901369,8.11074333 27.5777748,8.10499384 C27.5654128,8.09924435 27.5530508,8.09349487 27.5406887,8.08199589 C27.5283267,8.07624641 27.5159647,8.07049692 27.5036026,8.06474743 C27.4912406,8.05899795 27.4788786,8.05324846 27.4665166,8.04749897 C27.4541545,8.04174949 27.4417925,8.036 27.4294305,8.03025051 C27.4170684,8.02450103 27.4047064,8.02450103 27.3923444,8.01875154 C27.3799823,8.01300205 27.3614393,8.00725257 27.3490773,8.00725257 C27.3367152,8.00725257 27.3243532,8.00150308 27.3181722,8.00150308 C27.2996291,7.99575359 27.2872671,7.99575359 27.2687241,7.99575359 C27.262543,7.99575359 27.256362,7.99000411 27.244,7.99000411 L6.24090949,5.29349487 L6.24090949,2.56823819 C6.24090949,2.53949076 6.24090949,2.51074333 6.23472848,2.48774538 C6.23472848,2.48199589 6.23472848,2.47624641 6.22854746,2.46474743 C6.22854746,2.44749897 6.22236645,2.43025051 6.22236645,2.41300205 C6.21618543,2.39575359 6.21618543,2.38425462 6.21000442,2.36700616 C6.21000442,2.35550719 6.2038234,2.3497577 6.2038234,2.33825873 C6.19764238,2.32101027 6.19146137,2.30376181 6.18528035,2.28651335 C6.18528035,2.28076386 6.17909934,2.26926489 6.17909934,2.2635154 C6.17291832,2.24626694 6.16673731,2.23476797 6.15437528,2.21751951 C6.14819426,2.21177002 6.14819426,2.20027105 6.14201325,2.19452156 C6.13583223,2.18302259 6.12965121,2.17152361 6.11728918,2.16002464 C6.11110817,2.14852567 6.10492715,2.14277618 6.09874614,2.13127721 C6.09256512,2.11977823 6.08638411,2.11402875 6.08020309,2.10252977 C6.07402208,2.0910308 6.06166004,2.07953183 6.05547903,2.06803285 C6.04929801,2.06228337 6.043117,2.05653388 6.03693598,2.05078439 C6.02457395,2.03928542 6.01221192,2.02778645 5.99984989,2.01628747 C5.99366887,2.01053799 5.98748786,2.0047885 5.98130684,1.99903901 C5.96894481,1.98754004 5.95658278,1.97604107 5.93803974,1.96454209 C5.93185872,1.95879261 5.91949669,1.95304312 5.91331567,1.94729363 C5.90095364,1.93579466 5.88859161,1.93004517 5.87622958,1.9185462 C5.85768653,1.90704723 5.83914349,1.89554825 5.82678146,1.88979877 C5.82060044,1.88404928 5.81441943,1.88404928 5.80823841,1.87829979 C5.78351435,1.86680082 5.75260927,1.85530185 5.72788521,1.84380287 L1.17247682,0.0614620123 C0.745986755,-0.105273101 0.257686534,0.0787104723 0.0784370861,0.475425051 C-0.100812362,0.87213963 0.0969801325,1.32634908 0.523470199,1.49308419 L4.5658543,3.07994251 L4.5658543,6.59862834 L4.5658543,7.15632854 L4.5658543,11.4339466 L4.5658543,15.2573552 L4.5658543,20.086924 C4.5658543,21.6967803 5.86386755,23.0306612 7.53892274,23.2318932 C7.23605298,23.7033511 7.05680353,24.2553018 7.05680353,24.8417495 C7.05680353,26.572345 8.57115232,27.9752197 10.425457,27.9752197 C12.2797616,27.9752197 13.7941104,26.5665955 13.7941104,24.8417495 C13.7941104,24.2668008 13.627223,23.7205996 13.3305342,23.2606407 L20.834287,23.2606407 C20.5375982,23.7263491 20.3707108,24.2668008 20.3707108,24.8417495 C20.3707108,26.572345 21.8850596,27.9752197 23.7393642,27.9752197 C25.5936689,27.9752197 27.1080177,26.5665955 27.1080177,24.8417495 C27.1080177,23.1169035 25.5936689,21.7082793 23.7393642,21.7082793 L7.97777483,21.7082793 C7.01353642,21.7082793 6.23472848,20.9780945 6.23472848,20.086924 L6.23472848,17.9826119 C6.74157174,18.2585873 7.34113024,18.4195729 7.97777483,18.4195729 Z M12.1314172,24.836 C12.1314172,25.709922 11.3649713,26.4171088 10.431638,26.4171088 C9.49830464,26.4171088 8.73185872,25.7041725 8.73185872,24.836 C8.73185872,23.9678275 9.49830464,23.2548912 10.431638,23.2548912 C11.3649713,23.2548912 12.1314172,23.962078 12.1314172,24.836 Z M25.4453245,24.836 C25.4453245,25.709922 24.6788786,26.4171088 23.7455453,26.4171088 C22.8122119,26.4171088 22.045766,25.7041725 22.045766,24.836 C22.045766,23.9678275 22.8122119,23.2548912 23.7455453,23.2548912 C24.6788786,23.2548912 25.4453245,23.962078 25.4453245,24.836 Z M24.5490773,16.8672115 L7.97777483,16.8672115 C7.01353642,16.8672115 6.23472848,16.1370267 6.23472848,15.2458563 L6.23472848,11.4224476 L6.23472848,7.14482957 L6.23472848,6.85735524 L26.2921236,9.42737577 L26.2921236,15.2401068 C26.2921236,16.1427762 25.5071347,16.8672115 24.5490773,16.8672115 Z" id="Shape"></path>
                        </g>
                    </g>
                </g>
            </g>
        </g>
    </g>
</svg>