<svg width="106" height="70" viewBox="0 0 106 70" version="1.1" xmlns="http://www.w3.org/2000/svg" xmlns:xlink="http://www.w3.org/1999/xlink">
<title>Group</title>
<desc>Created using Figma</desc>
<g id="Canvas" transform="translate(2070 604)">
<g id="Group">
<g id="Vector">
<use xlink:href="#path0_fill" transform="translate(-2033.31 -604)" fill="#266EB7"/>
</g>
<g id="Vector">
<use xlink:href="#path1_fill" transform="translate(-2040.1 -549.066)" fill="#266EB7"/>
</g>
<mask id="mask0_alpha" mask-type="alpha">
<g id="id0 1">
<g id="Vector">
<use xlink:href="#path2_fill" transform="translate(-2028.04 -593.201)" fill="url(#paint2_linear)"/>
</g>
</g>
</mask>
<g id="Vector" mask="url(#mask0_alpha)">
<use xlink:href="#path3_fill" transform="translate(-2028.04 -593.222)" fill="#1897D4"/>
</g>
<g id="Vector">
<use xlink:href="#path4_fill" transform="translate(-2032.85 -548.599)" fill="#1897D4"/>
</g>
<g id="Vector">
<use xlink:href="#path5_fill" transform="translate(-2070 -579.47)" fill="#266EB7"/>
</g>
<g id="Vector">
<use xlink:href="#path6_fill" transform="translate(-2055.66 -579.448)" fill="#266EB7"/>
</g>
<g id="Vector">
<use xlink:href="#path7_fill" transform="translate(-2042.79 -579.469)" fill="#266EB7"/>
</g>
<g id="Vector">
<use xlink:href="#path8_fill" transform="translate(-2025.15 -579.208)" fill="#266EB7"/>
</g>
<g id="Vector">
<use xlink:href="#path9_fill" transform="translate(-2012 -579.471)" fill="#266EB7"/>
</g>
<g id="Vector">
<use xlink:href="#path10_fill" transform="translate(-2001.52 -579.275)" fill="#266EB7"/>
</g>
<g id="Vector">
<use xlink:href="#path11_fill" transform="translate(-1988.93 -579.492)" fill="#266EB7"/>
</g>
<g id="Vector">
<use xlink:href="#path12_fill" transform="translate(-1980.87 -579.492)" fill="#266EB7"/>
</g>
<g id="Vector">
<use xlink:href="#path13_fill" transform="translate(-2049.3 -566.611)" fill="#266EB7"/>
</g>
<g id="Vector">
<use xlink:href="#path14_fill" transform="translate(-2031.85 -566.827)" fill="#266EB7"/>
</g>
<g id="Vector">
<use xlink:href="#path15_fill" transform="translate(-2015.8 -566.783)" fill="#266EB7"/>
</g>
<g id="Vector">
<use xlink:href="#path16_fill" transform="translate(-1998.65 -566.761)" fill="#266EB7"/>
</g>
</g>
</g>
<defs>
<linearGradient id="paint2_linear" x1="0" y1="0" x2="1" y2="0" gradientUnits="userSpaceOnUse" gradientTransform="matrix(0 8.09825 8.26861 0 6.30116 1.1331)">
<stop offset="0" stop-color="#FFFFFF"/>
<stop offset="1" stop-color="#FFFFFF" stop-opacity="0"/>
</linearGradient>
<path id="path0_fill" d="M 12.0351 6.67238C 8.66319 12.4073 4.16057 16.644 0.168153 22.0095C -0.34205 22.7046 0.434211 22.4226 0.833296 22.0095C 1.69876 21.0975 2.60883 20.2284 3.54003 19.3808C 11.3918 12.2119 15.0305 10.0392 16.1167 7.82274C 17.2036 10.0392 20.8196 12.1897 28.6933 19.3808C 29.6026 20.2276 30.5119 21.0967 31.3993 22.0095C 31.7992 22.4226 32.5754 22.7046 32.0652 22.0095C 28.0501 16.6432 23.5702 12.4073 20.1983 6.67238C 17.6254 2.30544 16.8929 0.0675647 16.1832 0.00242098C 15.4508 -0.0841819 14.741 2.15293 12.0797 6.67238L 12.0351 6.67238Z"/>
<path id="path1_fill" d="M 0.766427 0.574327C 9.30606 15.2163 37.0777 15.1949 45.5954 0.574327C 45.9507 -0.0556518 46.5931 -0.316227 46.2167 0.574327C 42.5131 9.48139 33.507 15.152 22.9704 15.0646C 12.8337 14.978 3.80573 9.45994 0.123195 0.617245C -0.27589 -0.316993 0.390036 -0.0564183 0.766427 0.595786L 0.766427 0.574327Z"/>
<path id="path2_fill" d="M 21.6273 0L 1.95821e-06 0L 1.95821e-06 11.2752L 21.6273 11.2752L 21.6273 0Z"/>
<path id="path3_fill" d="M 10.647 9.64587C 7.14205 9.66733 3.59255 10.2107 1.95821e-06 11.2752C 0.621322 10.515 1.13074 9.68956 1.90778 9.08104C 7.03172 5.14866 9.71655 2.17274 10.8254 5.02855e-07C 11.9561 2.17197 14.5736 5.14866 19.6984 9.08104C 20.4746 9.68956 20.9848 10.515 21.6061 11.2752C 18.0128 10.2107 14.1307 9.66733 10.6039 9.64587L 10.647 9.64587Z"/>
<path id="path4_fill" d="M 31.7413 1.21621e-06C 22.0929 3.19358 11.5782 3.34532 1.19403e-06 1.21621e-06C 6.05514 12.4693 25.7081 12.4478 31.7413 1.21621e-06Z"/>
<path id="path5_fill" d="M 0.103657 13.1644C -0.0512822 13.2732 -0.0293715 13.8595 0.14826 13.9247C 0.769581 13.9032 1.87841 13.8595 4.14146 13.8595C 6.20496 13.8595 7.51333 13.9032 8.04545 13.9247C 8.17847 13.8595 8.24499 13.251 8.06736 13.1644C 7.49064 13.0993 7.11347 13.0341 6.8028 12.969C 6.13766 12.8165 5.98194 12.5559 5.96003 11.7956C 5.93812 10.7526 5.91543 8.49321 5.91543 7.36354C 5.91543 7.31986 5.96003 7.2984 5.98194 7.2984C 6.93662 7.49383 7.26919 7.88469 7.77939 8.68865C 9.22079 10.9043 10.1082 12.3819 11.0621 13.2073C 11.4385 13.4901 11.8602 13.7507 12.8368 13.9024C 13.6577 14.0113 16.4967 14.0113 17.1618 13.9239C 17.3167 13.9024 17.3394 13.1636 17.2064 13.1636C 15.3432 13.0119 15.0099 12.9031 13.5692 10.9917C 12.4815 9.55774 11.8383 8.60204 11.1513 7.73295C 10.6849 7.10297 9.97514 6.62474 9.57605 6.45153C 9.53145 6.43007 9.53145 6.40785 9.55414 6.36416C 10.0863 5.95107 10.5299 5.23449 11.2397 3.97454C 12.0159 2.64943 12.4596 2.32372 12.9252 2.32372C 13.4127 2.32372 14.056 2.47623 14.5224 2.7368C 14.5443 2.75826 14.7 2.71535 14.7438 2.60652C 15.0099 2.23711 15.4316 1.19405 15.4097 0.586293C 15.4097 0.542608 15.3651 0.368636 15.2321 0.282033C 14.9434 0.0866021 14.4332 -7.71823e-07 14.1671 -7.71823e-07C 12.415 -7.71823e-07 11.5942 1.06453 10.019 3.9753C 9.66448 4.64896 9.37573 5.19157 8.84362 5.75718C 8.2669 6.29978 7.46795 6.53967 6.09306 6.58258C 5.98116 6.58258 5.93734 6.49598 5.93734 6.4523C 5.93734 5.17012 5.91543 3.32386 5.93734 2.45477C 5.95925 1.67228 6.09306 1.3251 6.86854 1.21627C 7.20189 1.15113 7.24571 1.1289 7.7567 1.06376C 7.91163 0.998615 7.88972 0.346411 7.7567 0.303492C 7.31301 0.282033 6.27069 0.368638 4.11876 0.368638C 2.38861 0.368638 0.791491 0.303492 0.282071 0.303492C 0.126349 0.368636 0.0817462 0.998615 0.236685 1.08598C 0.746888 1.15113 1.01294 1.17259 1.36821 1.2385C 2.10065 1.36879 2.21098 1.75965 2.2775 2.34594C 2.3221 3.17135 2.29941 5.08351 2.29941 6.51744C 2.29941 8.29855 2.29941 10.4491 2.2775 11.4707C 2.23289 12.6218 2.07795 12.8824 1.14676 13.0349C 0.858005 13.0786 0.658463 13.1215 0.14826 13.1866L 0.103657 13.1644Z"/>
<path id="path6_fill" d="M 0.0664626 8.95075C -0.0454376 8.99444 -0.00083413 9.64587 0.0883731 9.7547C 0.553972 9.7547 1.52978 9.68956 2.26143 9.68956C 2.88275 9.68956 4.28033 9.7547 4.70133 9.7547C 4.85627 9.68956 4.90087 9.03736 4.85626 8.95075C 4.32415 8.84192 3.94698 8.75532 3.74743 8.66795C 3.41486 8.53766 3.28105 8.27709 3.45947 7.66857C 3.65901 6.99567 4.41336 4.97469 4.90087 3.77987C 4.92278 3.73619 5.01277 3.71473 5.03468 3.77987C 5.52219 4.77925 6.58641 7.21256 6.98628 8.29855C 7.0974 8.62427 6.98628 8.68941 6.87517 8.7331C 6.69753 8.8197 6.43148 8.86338 6.20924 8.95075C 6.16464 8.99444 6.20924 9.68956 6.32036 9.7547C 6.80865 9.73324 8.09511 9.68956 8.87137 9.68956C 9.62572 9.68956 11.5773 9.73324 12.3098 9.7547C 12.3763 9.68956 12.4655 9.03736 12.3544 8.95075C 11.2009 8.7331 10.8245 8.69018 10.2916 7.58197C 9.67032 6.34347 7.78523 2.10759 6.98628 0.173972C 6.96437 0.0651438 6.83134 -8.65378e-07 6.76483 -8.65378e-07C 6.5645 -8.65378e-07 4.67942 0.825409 4.39145 1.0423C 4.34685 1.08598 4.32493 1.21627 4.34684 1.28142C 4.5683 1.78111 4.6129 1.91139 4.39145 2.41108C 3.72553 4.01899 2.77242 6.29979 2.23952 7.29917C 1.6182 8.53767 1.46326 8.7331 0.0437701 8.94999L 0.0664626 8.94999L 0.0664626 8.95075Z"/>
<path id="path7_fill" d="M 12.1312 0.954931C 13.7064 0.954931 14.2378 2.86709 14.2378 5.45215C 14.2378 7.40723 13.9279 9.05881 12.6625 9.05881C 11.3323 9.05881 10.4449 7.34285 10.4449 4.32248C 10.4449 2.30226 10.9324 0.977156 12.1304 0.977156L 12.1304 0.954931L 12.1312 0.954931ZM 0.0420666 8.97144C -0.00253698 9.05805 -0.0244475 9.64434 0.0420666 9.7754C 0.685298 9.7754 1.57267 9.71025 3.01486 9.71025C 4.16829 9.71025 5.29903 9.7754 6.00878 9.7754C 6.11989 9.66657 6.16371 9.12319 6.1418 8.97144C 5.76541 8.9063 5.49936 8.86262 5.32094 8.77601C 4.98837 8.66718 4.83343 8.49321 4.81152 7.79886C 4.78961 7.08151 4.78961 6.36493 4.78961 5.43069L 5.83193 5.43069C 6.1418 5.43069 6.78582 5.40923 6.98536 5.36555C 7.2076 8.10312 8.93775 9.97083 12.3315 9.97083C 13.7291 9.97083 14.9264 9.60142 15.7034 9.12396C 17.0345 8.29855 17.9219 6.86462 17.9219 4.90954C 17.9219 2.21565 16.0141 -1.19282e-06 12.5538 -1.19282e-06C 11.2673 -1.19282e-06 9.95893 0.368638 9.15998 0.890554C 7.78431 1.75965 7.14186 3.01961 7.05344 4.27956C 6.54324 4.27956 5.56744 4.27956 5.01263 4.23588C 4.90151 4.21442 4.835 4.14928 4.81309 4.04045L 4.81309 1.84548C 4.835 1.45462 4.96803 1.25919 5.3898 1.17182C 5.69968 1.10668 5.83271 1.10668 6.03225 1.06299C 6.14337 1.01931 6.14337 0.345645 6.03225 0.259042C 5.83271 0.259042 4.94533 0.324185 3.12676 0.324185C 1.57424 0.324185 0.620348 0.259042 0.265085 0.259042C 0.132056 0.324186 0.110146 0.911246 0.198571 1.01931C 0.487321 1.06299 0.686864 1.10591 0.93101 1.19328C 1.35279 1.30211 1.46391 1.47608 1.50773 1.84548C 1.52964 2.3674 1.52964 3.97454 1.52964 4.75626C 1.52964 5.86447 1.50773 7.2984 1.48503 7.81955C 1.46312 8.4273 1.352 8.6235 0.952135 8.75379C 0.774503 8.81893 0.53114 8.86262 0.153183 8.94922L 0.0420666 8.97144Z"/>
<path id="path8_fill" d="M 5.6951 8.71087C 5.62859 8.8197 5.62859 9.40599 5.7397 9.51482C 6.16148 9.49336 8.02466 9.44968 8.91204 9.44968C 9.84324 9.44968 11.3965 9.51482 12.1063 9.51482C 12.2174 9.40599 12.2839 8.79747 12.2174 8.71087C 11.9513 8.64573 11.751 8.62427 11.4411 8.5369C 10.9982 8.45029 10.7533 8.27632 10.7087 7.6678C 10.6868 7.06005 10.6641 5.8867 10.6641 4.62674C 10.6422 3.60513 10.6641 2.32372 10.686 1.7152C 10.7079 1.30288 10.7525 1.10744 11.3519 0.977156C 11.5296 0.933472 11.8183 0.868327 11.9952 0.846867C 12.0398 0.71658 12.0398 0.151745 11.9952 0.021458C 11.0413 0.0429171 10.1093 0.0866039 9.04428 0.0866039C 8.31185 0.0866039 6.53787 0.042917 6.13878 0.042917C 6.07227 0.0866016 6.02767 0.695121 6.09418 0.803183C 6.36024 0.846868 6.53709 0.889787 6.71472 0.977156C 7.1365 1.08598 7.29144 1.23773 7.29144 1.60713C 7.31335 2.38963 7.31335 3.62736 7.31335 4.43131C 7.04729 4.51791 6.67012 4.60528 6.27104 4.60528C 5.33984 4.60528 4.67391 4.25734 4.67391 3.08475C 4.652 2.43254 4.652 1.80333 4.69582 1.36879C 4.71773 1.02084 4.82885 0.934237 5.45017 0.803949C 5.56129 0.760265 5.56129 0.108827 5.45017 -1.07587e-06C 5.25063 -1.07587e-06 4.31943 0.0651449 2.96567 0.0651449C 1.41315 0.0651449 0.459261 -1.07587e-06 0.103997 -1.07587e-06C -0.00712099 0.0651427 -0.0290308 0.652203 0.0374833 0.760265C 0.348144 0.80395 0.525773 0.846869 0.769919 0.934238C 1.14709 1.04307 1.30281 1.21704 1.34664 1.58644C 1.34664 2.36893 1.32473 2.93377 1.32473 3.45492C 1.32473 4.36693 1.6127 4.86662 2.12368 5.25825C 2.65658 5.67134 3.56586 5.86677 4.51975 5.86677C 5.42904 5.86677 6.40485 5.64911 7.35874 5.25825C 7.35874 6.21471 7.38065 7.10527 7.33683 7.75671C 7.31492 8.08243 7.27031 8.38669 6.84932 8.47406C 6.49405 8.56066 6.16148 8.60434 5.71779 8.69171L 5.6951 8.71087Z"/>
<path id="path9_fill" d="M 9.73767 6.90984C 8.76187 7.58273 7.85258 7.82185 6.76488 7.82185C 5.70066 7.82185 4.92361 7.56128 4.32498 7.0179C 3.70445 6.45306 3.39378 5.73648 3.34918 5.10574C 3.34918 5.04059 3.39379 4.88885 3.4603 4.86662C 5.30235 4.80148 9.11713 4.58382 9.84879 4.3447C 9.9153 4.30102 10.0264 3.77987 10.0037 3.71473C 9.8707 3.67104 9.64925 3.5193 9.62734 3.38901C 9.40588 2.10759 8.4066 7.01657e-08 5.5238 7.01657e-08C 4.48149 7.01657e-08 3.32727 0.303493 2.41799 0.803951C 1.02041 1.6079 -1.43284e-06 3.08475 -1.43284e-06 5.01837C -1.43284e-06 6.4523 0.443688 7.88623 1.55252 8.84192C 2.35147 9.53705 3.4603 9.97159 5.01282 9.97159C 6.72106 9.97159 8.62884 9.1025 9.75958 7.84254C 9.78149 7.75594 9.91452 7.29993 9.89261 7.06005C 9.89261 6.99491 9.78149 6.92976 9.75958 6.88608L 9.73767 6.90984ZM 4.72485 0.957231C 5.70065 0.957231 6.27737 2.02176 6.34389 3.52083C 6.34389 3.60743 6.27737 3.71626 6.18895 3.73848C 5.74526 3.82509 4.01511 3.82509 3.43761 3.80363C 3.32649 3.80363 3.28267 3.6948 3.28267 3.67334C 3.28267 2.10836 3.86017 0.957231 4.72485 0.957231Z"/>
<path id="path10_fill" d="M 0.0729071 8.77755C 0.00639292 8.86415 -0.0601213 9.47267 0.0948175 9.60296C 1.4924 9.60296 3.73196 9.68956 4.81966 9.68956C 6.19455 9.68956 7.39259 9.62442 8.50142 9.27647C 10.032 8.79824 11.0297 7.92991 11.0297 6.58259C 11.0297 5.30117 9.92091 4.64973 8.3457 4.36693C 8.3011 4.34547 8.3011 4.28033 8.36761 4.2581C 9.49835 3.95384 10.3857 3.23649 10.3857 2.23788C 10.3857 0.369403 8.23458 4.67772e-07 6.41601 4.67772e-07C 4.64047 4.67772e-07 1.97912 0.10883 0.138638 0.195433C 0.0275207 0.260576 0.00561012 0.846868 0.138638 0.933471C 0.51503 0.998615 0.959501 1.10745 1.26938 1.28142C 1.44779 1.36879 1.4697 1.49907 1.49161 1.71596C 1.53622 2.12905 1.51352 3.73619 1.51352 4.6275C 1.51352 5.5832 1.49161 7.12596 1.46892 7.97283C 1.46892 8.27632 1.4024 8.47252 1.00254 8.55912C 0.73648 8.62427 0.425825 8.68941 0.0486504 8.77678L 0.0729071 8.77678L 0.0729071 8.77755ZM 7.57023 7.01713C 7.57023 8.29855 6.79397 8.79901 5.9731 8.79901C 5.75165 8.79901 5.30718 8.69018 5.13033 8.51621C 4.90887 8.34223 4.82045 8.16826 4.79775 7.82108C 4.77584 7.08304 4.77584 6.01775 4.77584 5.10574C 4.77584 5.08428 4.79776 5.04059 4.90888 5.01837C 6.68363 5.01837 7.59292 5.73572 7.59292 7.03859L 7.57023 7.01713ZM 6.88239 3.91093C 6.72745 4.04121 6.39488 4.15004 6.03962 4.15004L 4.88618 4.15004C 4.81967 4.12858 4.77506 4.10635 4.77506 4.0849C 4.77506 3.2158 4.79697 1.39101 4.79697 1.04383C 4.79697 0.978689 4.84158 0.913544 4.93001 0.913544C 6.3941 0.913544 7.3699 1.54352 7.3699 2.82571C 7.3699 3.412 7.16957 3.73772 6.88161 3.93392L 6.88161 3.91093L 6.88239 3.91093Z"/>
<path id="path11_fill" d="M 5.56762 3.69327C 5.56762 3.82356 5.56762 3.86724 5.54571 3.99676C 5.5238 4.08413 5.4346 4.23588 5.34539 4.25734C 4.3915 4.62674 1.19726 5.3004 0.44369 5.73495C 0.243365 5.99553 7.64179e-07 6.84239 7.64179e-07 7.14665C 7.64179e-07 8.05867 0.354483 8.92853 0.997714 9.44968C 1.4414 9.79762 1.97352 10.0145 2.57293 10.0145C 2.9501 10.0145 4.19196 9.66657 5.4346 8.88484C 5.4346 8.86262 5.54571 8.86262 5.54571 8.9063C 5.56762 9.01513 5.63414 9.18834 5.67874 9.29716C 5.83368 9.71025 6.36658 10.0145 7.25395 10.0145C 8.14133 10.0145 9.4051 9.66657 10.071 9.1025C 10.1375 9.0159 10.2487 8.23341 10.204 8.16826C 9.84957 8.25486 9.62812 8.27709 9.36128 8.27709C 8.82917 8.27709 8.67345 7.79886 8.67345 7.38654C 8.67345 6.43007 8.71883 4.91031 8.71883 3.80209C 8.71883 2.99814 8.58502 2.15128 8.0756 1.43393C 7.45428 0.608521 6.39005 -2.57274e-07 5.01438 -2.57274e-07C 4.19352 -2.57274e-07 2.28652 0.629979 0.954675 1.49907C 0.777043 1.62936 0.422562 2.8464 0.422562 3.0196C 0.399869 3.14989 1.22073 3.5193 1.35376 3.41047C 1.48678 3.17135 1.99621 2.21566 2.19653 2.04168C 2.37416 1.84625 2.88358 1.71596 3.4603 1.71596C 4.12622 1.71596 4.79136 1.93285 5.21236 2.43331C 5.52302 2.80195 5.58954 3.23726 5.58954 3.64958L 5.56762 3.69327ZM 5.54493 5.17012C 5.54493 5.56098 5.54493 6.99491 5.50033 7.71149C 5.50033 7.9506 5.43382 8.08089 5.34461 8.12458C 5.21158 8.23341 5.01204 8.25486 4.76868 8.25486C 3.99242 8.25486 3.08313 7.73372 3.08313 6.5389C 3.08313 6.32125 3.21616 5.84378 3.28267 5.75641C 3.57064 5.53875 4.81328 5.21303 5.45651 5.0176C 5.47842 5.0176 5.52302 5.08275 5.52302 5.12643L 5.54493 5.17012Z"/>
<path id="path12_fill" d="M 16.6689 0.760266C 16.8019 0.629979 16.78 0.0651435 16.647 -2.57274e-07C 16.0257 -2.57274e-07 14.4731 0.0651428 13.4746 0.0651428C 12.3877 0.0651428 11.2343 0.0214588 9.30459 0.0214588C 5.356 0.0214588 3.27137 1.56345 3.27137 3.71473C 3.27137 5.45292 4.44672 6.86462 6.93122 7.27771C 6.97582 7.29917 6.97582 7.36431 6.93122 7.38654C 5.68936 7.99429 4.49132 9.7547 2.56163 11.8615C 1.78537 12.6869 1.47471 12.7958 0.0552151 12.9697C -0.0559026 13.0134 0.0106102 13.73 0.166332 13.7737C 1.40819 13.8388 4.07032 13.7522 5.09073 13.3169C 5.71205 13.0563 6.26607 12.6655 6.51021 12.3398C 7.35299 11.3841 8.12925 10.1892 8.99471 9.05958C 9.68177 8.14757 10.325 7.60419 10.703 7.58197L 10.969 7.58197C 11.0136 7.58197 11.102 7.66857 11.102 7.71225C 11.102 9.1025 11.0801 10.4061 11.0574 11.6446C 11.0128 12.3183 10.8579 12.5789 10.3031 12.7306C 9.83749 12.8395 9.63717 12.8395 9.06123 12.9261C 8.9282 12.9483 8.99471 13.6434 9.10583 13.6863C 9.92669 13.6863 11.1459 13.6212 12.8095 13.6212C 14.5177 13.6212 16.0037 13.6863 16.7362 13.6863C 16.8473 13.6212 16.9357 13.0134 16.8027 12.9261C 16.4482 12.8824 15.8715 12.7958 15.5828 12.7306C 15.006 12.6218 14.7619 12.3827 14.74 11.6876C 14.6946 10.9924 14.6727 8.66795 14.6727 7.29917C 14.6727 5.12643 14.6727 2.93223 14.7181 1.95431C 14.74 1.36802 15.006 1.0423 15.4935 0.93347C 15.8034 0.869093 16.1579 0.803951 16.6689 0.760266ZM 10.8125 1.04307C 10.9674 1.08675 11.0121 1.28218 11.0121 1.39101C 11.034 2.52068 11.034 4.88885 11.0567 6.53967C 11.0567 6.62627 10.9901 6.66995 10.9236 6.66995C 9.30459 6.69141 7.08615 6.10512 7.08615 3.60667C 7.08615 1.95585 8.06195 0.956464 9.92591 0.956464C 10.3023 0.955698 10.6137 0.977923 10.8125 1.04307Z"/>
<path id="path13_fill" d="M 0.102839 12.2761C -0.00827859 12.4064 -0.0747934 13.2533 0.147442 13.4273C 2.16634 13.4273 5.3825 13.5576 6.95771 13.5576C 8.93122 13.5576 10.6841 13.4487 12.2812 12.9705C 14.4777 12.3191 15.9183 11.0806 15.9183 9.21209C 15.9183 7.40876 14.3212 6.49675 12.059 6.10512C 11.9924 6.06143 11.9924 5.97483 12.1036 5.93115C 13.7453 5.4966 15.0091 4.49722 15.0091 3.12843C 15.0091 0.521916 11.9267 -8.65378e-07 9.28649 -8.65378e-07C 6.71356 -8.65378e-07 2.89878 0.173971 0.258562 0.260574C 0.103623 0.369403 0.0809296 1.17259 0.258562 1.30287C 0.813368 1.4117 1.4566 1.54199 1.90029 1.80257C 2.16713 1.93285 2.18904 2.10606 2.23364 2.43254C 2.30015 3.0196 2.27824 5.23526 2.27824 6.51668C 2.27824 7.864 2.23364 10.0145 2.21173 11.1879C 2.21173 11.6224 2.10061 11.883 1.54581 12.0133C 1.16941 12.1221 0.724944 12.2087 0.170138 12.3175L 0.102839 12.2761ZM 10.9274 9.82138C 10.9274 11.6247 9.8186 12.2976 8.62135 12.2976C 8.28799 12.2976 7.64476 12.1236 7.40061 11.9067C 7.06804 11.6676 6.95771 11.4071 6.91232 10.9288C 6.86772 9.88652 6.86772 8.40891 6.86772 7.14895C 6.86772 7.10527 6.91232 7.04012 7.04613 7.01866C 9.61906 7.01866 10.9055 8.0395 10.9055 9.82138L 10.9274 9.82138ZM 9.92893 5.47667C 9.70748 5.6721 9.21919 5.80239 8.70899 5.80239L 7.04535 5.80239C 6.93423 5.75871 6.88963 5.73725 6.88963 5.69356C 6.88963 4.47729 6.93501 1.93515 6.93501 1.45769C 6.93501 1.34886 7.00153 1.26225 7.11265 1.26225C 9.24188 1.26225 10.6395 2.15358 10.6395 3.93468C 10.6395 4.75933 10.3507 5.21533 9.92893 5.47667Z"/>
<path id="path14_fill" d="M 8.25167 4.9116e-07C 6.30006 4.9116e-07 4.43689 0.586294 3.21616 1.30364C 1.28646 2.45477 -5.97015e-07 4.41062 -5.97015e-07 6.88685C -5.97015e-07 10.7755 2.41798 13.904 7.85258 13.904C 9.56082 13.904 11.6009 13.3177 12.7324 12.6655C 14.7286 11.5143 15.9704 9.53705 15.9704 6.8217C 15.9704 2.99815 13.2199 4.9116e-07 8.22898 4.9116e-07L 8.25167 4.9116e-07ZM 7.4308 1.30364C 9.64925 1.30364 10.8465 3.84501 10.8465 7.73448C 10.8465 10.2107 10.4474 11.5795 9.60464 12.2746C 9.36049 12.5137 8.91681 12.644 8.49503 12.644C 6.56534 12.644 5.07933 10.4276 5.07933 5.93115C 5.07933 3.45492 5.54572 2.23788 6.47692 1.63013C 6.76488 1.45615 7.12014 1.32587 7.4308 1.32587L 7.4308 1.30364Z"/>
<path id="path15_fill" d="M 5.9894 5.45215C 6.034 5.387 6.14434 5.387 6.16704 5.45215C 6.92139 7.01637 8.51851 10.797 8.85108 11.8178C 8.89568 11.883 8.78456 12.0133 8.73996 12.0133L 3.61602 12.0133C 3.54951 12.0133 3.43839 11.9044 3.46109 11.8178C 3.68176 11.0576 5.58953 6.47376 5.9894 5.45215ZM 5.32348 1.43316C 5.25696 1.49831 5.16854 1.67228 5.25697 1.75888C 5.52302 2.51915 5.58954 2.64943 5.32348 3.3231C 4.65756 4.95246 2.63944 9.51482 1.57443 11.6439C 1.50791 11.8178 1.30837 11.9474 1.06501 11.9696C 0.798951 11.9911 0.111115 12.0784 0.111115 12.0784C 0.0665113 12.1221 -1.52836e-06 12.2087 -1.52836e-06 12.2524C 0.332569 13.3384 0.554021 15.1202 0.665139 16.8799C 0.731653 16.9887 1.08692 16.9673 1.17534 16.8362C 1.28646 16.1196 2.99392 13.4909 3.85938 13.4909L 11.6681 13.4909C 12.7989 13.4909 14.1299 16.0545 14.1965 16.8799C 14.3514 17.0102 14.7059 16.9236 14.817 16.8148C 15.2169 14.36 15.7271 13.1 16.1042 12.1872C 16.1489 12.1221 16.1042 11.9481 16.0377 11.9481L 14.7286 11.9918C 14.5071 11.9918 14.2411 11.8178 14.0861 11.601C 13.1541 9.92791 10.071 3.06252 8.87299 0.325718C 8.80647 0.0651431 8.58502 -1.16943e-07 8.4739 -1.16943e-07C 8.18515 -1.16943e-07 5.76795 1.15113 5.34617 1.47685L 5.32348 1.43316Z"/>
<path id="path16_fill" d="M 8.05213 5.03983C 8.05213 5.23526 8.05213 5.27894 8.00752 5.47438C 7.96292 5.60466 7.85258 5.80009 7.71955 5.84378C 6.34388 6.36569 1.73015 7.32139 0.643231 7.90769C 0.355264 8.27709 9.07463e-07 9.45044 9.07463e-07 9.86276C 9.07463e-07 11.1442 0.510205 12.339 1.44219 13.1C 2.08542 13.5997 2.86167 13.8825 3.70523 13.8825C 4.25925 13.8825 6.0567 13.3828 7.83067 12.3183C 7.83067 12.2746 7.98561 12.2746 7.98561 12.362C 8.03022 12.536 8.09673 12.7528 8.16324 12.9268C 8.3847 13.5131 9.16095 13.9477 10.4263 13.9477C 11.6901 13.9477 13.5094 13.448 14.486 12.6662C 14.5971 12.536 14.7521 11.45 14.6636 11.3626C 14.1534 11.4929 13.8428 11.5366 13.4437 11.5366C 12.6674 11.5366 12.4452 10.8851 12.4452 10.2981C 12.4452 8.95152 12.5117 6.84393 12.5117 5.30117C 12.5117 4.19296 12.3341 2.97669 11.5805 1.99876C 10.6931 0.847636 9.16252 -2.10497e-07 7.1444 -2.10497e-07C 5.94636 -2.10497e-07 3.19581 0.890554 1.31072 2.08537C 1.04466 2.2808 0.534461 3.9753 0.534461 4.21442C 0.489857 4.40985 1.68789 4.90954 1.86552 4.77925C 2.04316 4.45353 2.79673 3.10621 3.08548 2.84563C 3.35153 2.58506 4.08319 2.38963 4.90405 2.38963C 5.87985 2.38963 6.83453 2.69389 7.43237 3.41047C 7.87606 3.93238 7.98718 4.51868 7.98718 5.10497L 8.05213 5.03983ZM 8.00831 7.10374C 8.00831 7.66857 8.00831 9.64588 7.94179 10.6667C 7.94179 10.9924 7.83067 11.1879 7.72034 11.2538C 7.54192 11.4277 7.23205 11.4492 6.89948 11.4492C 5.78986 11.4492 4.48149 10.7319 4.48149 9.05958C 4.48149 8.75532 4.65912 8.08242 4.76946 7.9736C 5.16932 7.66934 6.96598 7.21333 7.89718 6.93053C 7.94179 6.92976 8.00831 7.03859 8.00831 7.10374Z"/>
</defs>
</svg>
