<?xml version="1.0" encoding="UTF-8"?>
<svg width="28px" height="28px" viewBox="0 0 28 28" version="1.1" xmlns="http://www.w3.org/2000/svg" xmlns:xlink="http://www.w3.org/1999/xlink">
    <!-- Generator: Sketch 45 (43475) - http://www.bohemiancoding.com/sketch -->
    <title>chat-2</title>
    <desc>Created with Sketch.</desc>
    <defs></defs>
    <g id="Page-1" stroke="none" stroke-width="1" fill="none" fill-rule="evenodd">
        <g id="vodakl-mainpage-color" transform="translate(-485.000000, -136.000000)" fill-rule="nonzero" fill="#1897D4">
            <g id="navbar-2" transform="translate(0.000000, 110.000000)">
                <g id="2" transform="translate(450.000000, 10.000000)">
                    <g id="Group-2" transform="translate(35.000000, 16.000000)">
                        <g id="chat-2">
                            <path d="M23.89063,4.10232558 C21.2445412,1.45623679 17.7341818,0 13.9929556,0 C10.2517294,0 6.74136998,1.45623679 4.09528118,4.10232558 C-1.01930655,9.21691332 -1.37448626,17.4038055 3.21325159,22.9268499 C2.76335729,23.8325581 2.04115856,24.8862579 0.969699789,25.4131078 C0.454689218,25.6676533 0.164625793,26.2181818 0.253420719,26.7864693 C0.342215645,27.3547569 0.780270613,27.7987315 1.34855814,27.8875264 C1.61494292,27.9289641 1.99380127,27.9704017 2.45553488,27.9704017 C3.69274419,27.9704017 5.516,27.6803383 7.38069345,26.3365751 C9.45849471,27.4553911 11.7316448,28 13.9870359,28 C17.6098689,28 21.1971839,26.5970402 23.8965497,23.8976744 C26.5426385,21.2515856 27.9988753,17.7412262 27.9988753,14 C27.9988753,10.2587738 26.5367188,6.74841438 23.89063,4.10232558 Z M22.7599746,22.767019 C18.764203,26.7627907 12.5781564,27.5560254 7.7121945,24.6968288 C7.39253277,24.5073996 6.99591543,24.5665962 6.74136998,24.8211416 C6.71769133,24.832981 6.69401268,24.85074 6.6762537,24.8684989 C5.07202537,26.1116279 3.49739535,26.372093 2.45553488,26.372093 L2.44961522,26.372093 C3.65130655,25.4959831 4.40902326,24.1936575 4.85299789,23.1813953 C4.92403383,23.0097252 4.93587315,22.8321353 4.89443552,22.6663848 C4.87667653,22.5065539 4.81156025,22.346723 4.69908668,22.2164905 C0.365894292,17.3209302 0.590841438,9.86215645 5.22001691,5.23298097 C10.0563805,0.396617336 17.923611,0.396617336 22.754055,5.23298097 C27.5963383,10.0693446 27.5963383,17.9306554 22.7599746,22.767019 Z" id="Shape"></path>
                            <circle id="Oval" cx="13.9929556" cy="14" r="1"></circle>
                            <circle id="Oval" cx="19.060186" cy="14" r="1"></circle>
                            <circle id="Oval" cx="8.92572516" cy="14" r="1"></circle>
                        </g>
                    </g>
                </g>
            </g>
        </g>
    </g>
</svg>