<?xml version="1.0" encoding="UTF-8"?>
<svg width="120px" height="120px" viewBox="0 0 120 120" version="1.1" xmlns="http://www.w3.org/2000/svg" xmlns:xlink="http://www.w3.org/1999/xlink">
    <!-- Generator: Sketch 45 (43475) - http://www.bohemiancoding.com/sketch -->
    <title>strength</title>
    <desc>Created with Sketch.</desc>
    <defs></defs>
    <g id="Symbols" stroke="none" stroke-width="1" fill="none" fill-rule="evenodd">
        <g id="r_1" transform="translate(-115.000000, -112.000000)" fill-rule="nonzero" fill="#FFFFFF">
            <g id="1">
                <g id="no,-icon,-text" transform="translate(15.000000, 45.000000)">
                    <g id="strength" transform="translate(100.000000, 67.000000)">
                        <path d="M101.153348,27.1473191 L97.0595309,27.1473191 C97.0595309,30.5257021 94.3043923,33.2749787 90.918806,33.2749787 L90.918806,37.3600851 C94.3043923,37.3600851 97.0595309,40.1093617 97.0595309,43.4877447 L101.153348,43.4877447 C101.153348,40.1093617 103.908486,37.3600851 107.294072,37.3600851 L107.294072,33.2749787 C103.908486,33.2749787 101.153348,30.5257021 101.153348,27.1473191 Z M99.1064392,37.4234043 C98.508742,36.6206809 97.8005117,35.9139574 96.9960768,35.3175319 C97.8005117,34.7211064 98.508742,34.014383 99.1064392,33.2116596 C99.7041365,34.014383 100.412367,34.7211064 101.216802,35.3175319 C100.412367,35.9139574 99.7041365,36.6206809 99.1064392,37.4234043 Z" id="Shape"></path>
                        <path d="M113.434797,4.67923404 L109.340981,4.67923404 C109.340981,8.05761702 106.585842,10.8068936 103.200256,10.8068936 L103.200256,14.892 C106.585842,14.892 109.340981,17.6412766 109.340981,21.0196596 L113.434797,21.0196596 C113.434797,17.6412766 116.189936,14.892 119.575522,14.892 L119.575522,10.8068936 C116.189936,10.8068936 113.434797,8.05761702 113.434797,4.67923404 Z M111.387889,14.9553191 C110.790192,14.1525957 110.081962,13.4458723 109.277527,12.8494468 C110.081962,12.2530213 110.790192,11.5462979 111.387889,10.7435745 C111.985586,11.5462979 112.693817,12.2530213 113.498252,12.8494468 C112.693817,13.4458723 111.985586,14.1525957 111.387889,14.9553191 Z" id="Shape"></path>
                        <path d="M73.3542857,115.598043 C52.786951,113.861872 29.2720682,106.167574 10.4507463,95.0091064 L4.86882729,91.7022128 C5.69987207,89.7617872 6.18089552,87.7335319 6.64963753,85.758383 C6.78882729,85.1660426 6.93006397,84.5757447 7.07744136,83.9915745 C7.50933902,82.302383 7.98831557,79.5490213 8.54302772,76.3646809 C9.34132196,71.7791489 10.3340725,66.0722553 11.2306183,63.7784681 L23.4915991,32.4211915 C23.7597441,31.7369362 24.0033262,30.9995745 24.253049,30.2458723 C24.9162473,28.2319149 25.6040085,26.1464681 26.889467,25.0189787 C27.6140725,24.3817021 28.5576972,23.9078298 29.4685714,23.4891064 C29.5750107,23.4421277 54.0294243,4.77931915 54.0294243,4.77931915 C55.2452878,3.84587234 56.9319403,3.85812766 58.1314286,4.82017021 L70.2982516,14.5325106 C71.0678891,15.1473191 71.5223028,16.0644255 71.5427719,17.0489362 C71.5632409,18.0334468 71.1518124,18.9689362 70.4087846,19.6184681 L62.6469083,26.393617 C61.3286994,27.5435745 59.3391045,27.4720851 58.1048188,26.2445106 C57.3965885,25.5377872 57.0486141,24.5655319 57.1468657,23.5708085 C57.2471642,22.5781277 57.7814072,21.689617 58.6144989,21.1360851 L59.3022601,20.6765106 L57.028145,17.2817872 L56.3424307,17.7393191 C54.4858849,18.9730213 53.2945842,20.9522553 53.0735181,23.1684255 C52.852452,25.3845957 53.6323241,27.5578723 55.2104904,29.1326809 C57.9635821,31.8819574 62.4156077,32.0290213 65.3406397,29.4697021 L71.8682303,23.7709787 L73.8762473,26.777617 L61.6132196,37.2681702 L46.9634968,35.4400851 C47.1866098,34.3942979 47.4424733,33.3546383 47.741322,32.3251915 L43.811258,31.1874894 C42.4377825,35.9037447 41.8032409,40.7834043 41.9158209,45.6957447 C41.9772281,48.3326809 42.2597015,50.9594043 42.5339872,53.5003404 C42.8533049,56.4865532 43.1562473,59.3073191 43.1378252,62.1648511 C43.0825586,70.7211064 39.7604264,78.7095319 34.2521962,83.5279149 L36.9500213,86.5999149 C40.8493817,83.1888511 43.7375693,78.5869787 45.4487846,73.3233191 C46.066951,73.1170213 46.8529638,73.1313191 47.6246482,73.1966809 C50.3122388,73.4356596 52.9220469,74.1709787 55.3721962,75.2719149 C54.3733049,76.8732766 53.5586354,78.5828936 52.9527505,80.3844255 L56.8336887,81.6855319 C57.361791,80.1148085 58.0863966,78.6278298 58.9768017,77.2368511 C59.0259275,77.2695319 61.0892111,74.4691915 61.0892111,74.4691915 C64.9455864,70.1594043 70.6278038,67.1548085 77.2372708,66.1682553 C87.1340725,64.6874043 96.3349254,68.0739574 101.29049,74.9859574 L104.62081,72.6084255 C102.565714,69.7427234 99.9006397,67.3999149 96.8261834,65.6228936 C102.756077,60.6982979 111.338763,58.9253617 118.656461,61.4622128 L119.999232,57.6038298 C110.77177,54.3970213 99.849467,56.9910638 92.8347122,63.719234 C87.9630704,61.8666383 82.3831983,61.2661277 76.6334328,62.1280851 C68.9800426,63.2678298 62.3849041,66.809617 57.8960341,71.9057872 C54.7970149,70.3922553 51.4339446,69.438383 47.9828571,69.1299574 C47.5304904,69.0891064 47.0453731,69.0707234 46.5500213,69.0748085 C46.9757783,66.8545532 47.2152665,64.5546383 47.2295949,62.1934468 C47.250064,59.1010213 46.9205117,56.0331064 46.601194,53.0652766 C46.3371429,50.6080851 46.0649041,48.0671489 46.0075906,45.5997447 C45.9584648,43.5490213 46.0730917,41.5044255 46.310533,39.4761702 L62.0021322,41.4329362 C62.7472068,41.4451915 63.2220896,41.2715745 63.59258,40.9529362 L77.9209382,28.697617 C78.7089979,28.025617 78.8666098,26.873617 78.2934755,26.0157447 L74.7031983,20.6397447 C75.3152239,19.5204255 75.6672921,18.2683404 75.6386354,16.9570213 C75.5915565,14.759234 74.5742431,12.7105532 72.856887,11.3379574 L60.6921109,1.62561702 C58.0147548,-0.510893617 54.2484435,-0.543574468 51.5342431,1.53982979 L28.3571002,19.3345532 L27.5997441,19.8513191 C26.5046482,20.3599149 25.2601279,21.0094468 24.1895949,21.9490213 C22.0689979,23.8097872 21.1622175,26.5488511 20.3659701,28.967234 C20.1428571,29.6474043 19.921791,30.3153191 19.6802559,30.9362553 L7.41927505,62.2935319 C6.3733049,64.9692766 5.42558635,70.4085957 4.51061834,75.6661277 C3.99275053,78.6380426 3.50558635,81.4465532 3.11257996,82.9845957 C2.95701493,83.591234 2.81168443,84.204 2.66635394,84.816766 C2.09321962,87.239234 1.55078891,89.5248511 0.420895522,91.4693617 C-0.139957356,92.4375319 0.183454158,93.6773617 1.14550107,94.247234 L8.35675906,98.5222979 C27.6857143,109.978979 51.8535608,117.88366 73.0083582,119.668851 C74.6479318,119.807745 76.7132623,119.889447 79.0713006,119.889447 C90.8389765,119.889447 109.822004,117.834638 118.828401,110.426298 L116.22678,107.274638 C106.925629,114.926043 83.7116418,116.46817 73.3542857,115.598043 Z" id="Shape"></path>
                    </g>
                </g>
            </g>
        </g>
    </g>
</svg>